<svg xmlns="http://www.w3.org/2000/svg" viewBox="0 0 48 48" id="police">
  <path d="M24,13.87a10.606,10.606,0,0,1-7.56-3,15.607,15.607,0,0,0,3.17,7.41A5.913,5.913,0,0,0,24,20.73a5.876,5.876,0,0,0,4.32-2.36,15.649,15.649,0,0,0,3.24-7.5A10.484,10.484,0,0,1,24,13.87Z"></path>
  <path d="M24.02 9.24A47.269 47.269 0 0 1 16.3 8.7 9.161 9.161 0 0 0 24 12.57a9.122 9.122 0 0 0 7.7-3.88A45.314 45.314 0 0 1 24.02 9.24zM16.52 7.42a45.465 45.465 0 0 0 7.5.52 44.55 44.55 0 0 0 7.45-.53l1.27-.23a5.561 5.561 0 0 0 .67-2.21C33.41 2.64 29.2.75 24 .75a16.173 16.173 0 0 0-7.03 1.42c-1.48.74-2.38 1.72-2.38 2.8a5.318 5.318 0 0 0 .65 2.23zM21.734 3.6l1.629.178.661-1.5.661 1.5 1.63-.178-.968 1.323.968 1.322-1.63-.177-.661 1.5-.661-1.5-1.629.177L22.7 4.924z"></path>
  <polygon points="6.05 47.25 11.53 47.25 11.53 45.09 6.36 44.51 6.05 47.25"></polygon>
  <path d="M41.49,30.5a3.327,3.327,0,0,0-1.78-2.64l-8.37-4.37-.02-.01.85,7.4-3.2-1.08.22,1.11L24.42,33.5l-.42.23-.42-.23-4.77-2.6.22-1.1-3.2,1.08.85-7.4-.02.01L8.29,27.86A3.327,3.327,0,0,0,6.51,30.5L5.36,42.89h.01l6.16.69V36.77a.75.75,0,0,1,1.5,0V47.25H34.97V36.77a.75.75,0,0,1,1.5,0v6.81l6.16-.69h.01ZM20.42,40.07l-2.25,1.01L16,40.07V38.09h4.42Zm11.64,0-2.25,1.01-2.18-1.01V38.09h4.43Z"></path>
  <polygon points="36.47 45.09 36.47 47.25 41.95 47.25 41.65 44.51 36.47 45.09"></polygon>
  <path d="M21.18 22.89A3.382 3.382 0 0 0 24 25.02a3.383 3.383 0 0 0 2.81-2.09c.01-.01.01-.03.02-.04l.75-2.08A6.112 6.112 0 0 1 24 22.03a6.038 6.038 0 0 1-3.57-1.22l.74 2.06C21.17 22.88 21.18 22.88 21.18 22.89zM29.7 22.43l-.84-.76-.7 1.91-.3.84c-.02.07-.05.15-.08.23-.18.56-.43 1.29-.75 2.24 0 .01 0 .02-.01.02L25.4 31.26l2.11-1.15-.5-2.57 3.4 1.16z"></path>
  <polygon points="22.6 31.26 20.98 26.91 19.78 23.43 19.15 21.69 18.3 22.46 17.59 28.7 21.01 27.54 20.49 30.12 22.6 31.26"></polygon>
  <path d="M25.64,26.17a4.17,4.17,0,0,1-3.27.01L24,30.68Z"></path>
</svg>
